<svg viewBox="0 0 128 128" fill="none" xmlns="http://www.w3.org/2000/svg"><path fill="#6366F1" d="M0 0h128v128H0z"/><path d="M64 27c20.4345 0 37 16.5202 37 36.8989 0 20.3788-16.5655 36.8991-37 36.8991S27 84.2777 27 63.8989C27 43.5202 43.5655 27 64 27zm0 3.5626c-18.4615 0-33.4276 14.9252-33.4276 33.3363 0 18.4112 14.9661 33.3363 33.4276 33.3363 18.4615 0 33.4276-14.9251 33.4276-33.3363 0-18.4111-14.9661-33.3363-33.4276-33.3363z" fill="#fff"/><path d="M64.4203 37.0633c14.6293 0 26.4886 11.9373 26.4886 26.6626 0 6.7611-2.5001 12.9344-6.6205 17.6343l-.0016-23.3218c0-2.8057-2.2807-5.0801-5.094-5.0801-2.8133 0-5.094 2.2744-5.094 5.0801l-.0006 30.5145a26.1608 26.1608 0 01-4.5817 1.3426l-.0022-20.0641c0-2.8056-2.2807-5.08-5.094-5.08-2.8133 0-5.094 2.2744-5.094 5.08l.0005 20.0646a26.15988 26.15988 0 01-4.5844-1.3431l-.0007-7.4411c0-2.8057-2.2806-5.0801-5.0939-5.0801-2.8134 0-5.094 2.2744-5.094 5.0801l-.0016.2484c-4.1204-4.6999-6.6206-10.8732-6.6206-17.6343 0-14.7253 11.8594-26.6626 26.4887-26.6626z" fill="#fff"/></svg>